<svg xmlns="http://www.w3.org/2000/svg" version="1.1" xmlns:xlink="http://www.w3.org/1999/xlink" xmlns:svgjs="http://svgjs.dev/svgjs" width="1000" height="1125" viewBox="0 0 1000 1125"><g transform="matrix(1,0,0,1,0.0011008540699322111,0)"><svg viewBox="0 0 320 360" data-background-color="#ffffff" preserveAspectRatio="xMidYMid meet" height="1125" width="1000" xmlns="http://www.w3.org/2000/svg" xmlns:xlink="http://www.w3.org/1999/xlink"><g id="tight-bounds" transform="matrix(1,0,0,1,0.00010353528136874957,0)"><svg viewBox="0 0 320 360" height="360" width="320"><g><svg></svg></g><g><svg viewBox="0 0 320 360" height="360" width="320"><g><path xmlns="http://www.w3.org/2000/svg" d="M307.925 179.999l6.575-11.387c11.322-19.607 4.604-44.679-15.003-56.001l-11.387-6.575v-13.151c0-22.639-18.354-40.994-40.994-40.994h-13.151l-6.575-11.387c-11.322-19.607-36.393-26.325-56.001-15.003l-11.39 6.572-11.387-6.576c-19.607-11.318-44.679-4.6-56.001 15.007l-6.575 11.387h-13.151c-22.639 0-40.994 18.354-40.994 40.994v13.151l-11.387 6.575c-19.607 11.322-26.325 36.393-15.003 56.001l6.572 11.387-6.576 11.387c-11.318 19.607-4.6 44.679 15.007 56l11.387 6.576v13.15c0 22.639 18.354 40.994 40.994 40.994h13.151l6.575 11.387c11.322 19.607 36.393 26.325 56.001 15.003l11.387-6.571 11.387 6.575c19.607 11.322 44.679 4.604 56-15.003l6.576-11.387h13.15c22.639 0 40.994-18.354 40.994-40.994v-13.151l11.387-6.575c19.607-11.322 26.325-36.393 15.003-56.001zM297.702 115.716c8.655 4.996 14.842 13.062 17.428 22.713 2.586 9.65 1.261 19.734-3.735 28.384l-5.538 9.596-17.747-30.74v-35.494zM251.155 271.155l-57.791 33.365h-66.731l-57.791-33.365-33.365-57.791v-66.731l33.365-57.791 57.791-33.365h66.731l57.791 33.365 33.365 57.791v66.731zM284.517 220.539v31.351l-27.151 15.676zM247.566 277.366l-15.676 27.151h-31.351zM187.15 308.106l-27.151 15.676-27.151-15.676zM119.459 304.517h-31.352l-15.676-27.151zM62.632 267.566l-27.151-15.676v-31.351zM31.891 207.15l-15.675-27.151 15.675-27.151zM35.481 139.459v-31.352l27.151-15.676zM72.431 82.632l15.676-27.151h31.352zM132.848 51.891l27.151-15.675 27.151 15.675zM200.539 55.481h31.351l15.676 27.151zM257.366 92.431l27.151 15.676v31.352zM288.106 152.848l15.676 27.151-15.676 27.151zM247.112 55.481c9.992 0 19.384 3.889 26.452 10.956 7.063 7.063 10.956 16.46 10.957 26.452v11.079l-30.741-17.747-17.747-30.74zM173.18 28.606c8.655-4.996 18.735-6.322 28.385-3.735 9.65 2.586 17.716 8.777 22.712 17.428l5.538 9.596h-35.494l-30.741-17.747zM95.716 42.295c4.996-8.655 13.062-14.842 22.713-17.428 9.65-2.586 19.734-1.261 28.384 3.736l9.596 5.537-30.74 17.747h-35.494zM35.481 92.885c0-9.992 3.889-19.384 10.956-26.452 7.063-7.063 16.46-10.956 26.452-10.956h11.079l-17.747 30.74-30.74 17.747zM8.606 166.817c-4.996-8.655-6.322-18.735-3.735-28.385 2.586-9.65 8.777-17.716 17.428-22.712l9.596-5.538v35.495l-17.747 30.74zM22.295 244.281c-8.655-4.996-14.842-13.062-17.428-22.712-2.586-9.65-1.261-19.734 3.736-28.385l5.537-9.596 17.747 30.74v35.495zM72.885 304.517c-9.992 0-19.384-3.889-26.452-10.957-7.063-7.063-10.956-16.46-10.956-26.451v-11.08l30.74 17.747 17.747 30.741zM146.817 331.391c-8.655 4.996-18.735 6.322-28.385 3.735-9.65-2.586-17.716-8.777-22.712-17.428l-5.538-9.596h35.495l30.74 17.747zM224.281 317.702c-4.996 8.655-13.062 14.842-22.712 17.428-9.65 2.586-19.734 1.261-28.385-3.735l-9.596-5.538 30.74-17.747h35.495zM284.517 267.112c0 9.992-3.889 19.384-10.957 26.452-7.063 7.063-16.46 10.956-26.451 10.957h-11.08l17.747-30.741 30.741-17.747zM315.13 221.565c-2.586 9.65-8.777 17.716-17.428 22.712l-9.596 5.538v-35.494l17.747-30.741 5.538 9.596c4.996 8.658 6.326 18.739 3.739 28.389z" fill="#1e787b" fill-rule="nonzero" stroke="none" stroke-width="1" stroke-linecap="butt" stroke-linejoin="miter" stroke-miterlimit="10" stroke-dasharray="" stroke-dashoffset="0" font-family="none" font-weight="none" font-size="none" text-anchor="none" style="mix-blend-mode: normal" data-fill-palette-color="tertiary"></path></g><g transform="matrix(1,0,0,1,64,141.76093620153625)"><svg viewBox="0 0 192 76.4781275969275" height="76.4781275969275" width="192"><g><svg viewBox="0 0 342.9005268292683 136.58536585365854" height="76.4781275969275" width="192"><g><svg viewBox="0 0 192 136.58536585365854" height="136.58536585365854" width="192"><g id="textblocktransform"><svg viewBox="0 0 192 136.58536585365854" height="136.58536585365854" width="192" id="textblock"><g><svg viewBox="0 0 192 136.58536585365854" height="136.58536585365854" width="192"><g transform="matrix(1,0,0,1,0,0)"><svg width="192" viewBox="4.699999809265137 -35 49.20000076293945 35" height="136.58536585365854" data-palette-color="#1e787b"><g class="undefined-text-0" data-fill-palette-color="primary" id="text-0"><path d="M25.1 0L5.8 0Q5.3 0 5-0.3 4.7-0.6 4.7-1.1L4.7-1.1 4.7-33.9Q4.7-34.4 5-34.7 5.3-35 5.8-35L5.8-35 6.75-35Q7.25-35 7.55-34.7 7.85-34.4 7.85-33.9L7.85-33.9 7.85-3 25.1-3Q25.65-3 25.95-2.7 26.25-2.4 26.25-1.85L26.25-1.85 26.25-1.1Q26.25-0.6 25.95-0.3 25.65 0 25.1 0L25.1 0ZM41.75 0L40.85 0Q40.35 0 40.05-0.3 39.75-0.6 39.75-1.1L39.75-1.1 39.75-32 29.85-32Q29.35-32 29.05-32.3 28.75-32.6 28.75-33.1L28.75-33.1 28.75-33.85Q28.75-34.4 29.05-34.7 29.35-35 29.85-35L29.85-35 52.75-35Q53.3-35 53.6-34.7 53.9-34.4 53.9-33.85L53.9-33.85 53.9-33.1Q53.9-32.6 53.6-32.3 53.3-32 52.75-32L52.75-32 42.9-32 42.9-1.1Q42.9-0.6 42.6-0.3 42.3 0 41.75 0L41.75 0Z" fill="#1e787b" data-fill-palette-color="primary"></path></g></svg></g></svg></g></svg></g></svg></g><g transform="matrix(1,0,0,1,224.2445268292683,8.96468292682927)"><svg viewBox="0 0 118.656 118.656" height="118.656" width="118.656"><g><svg xmlns="http://www.w3.org/2000/svg" xmlns:xlink="http://www.w3.org/1999/xlink" version="1.1" x="0" y="0" viewBox="11.0260009765625 11.026000022888184 77.9489974975586 77.9489974975586" enable-background="new 0 0 100 100" xml:space="preserve" height="118.656" width="118.656" class="icon-icon-0" data-fill-palette-color="accent" id="icon-0"><path d="M50 11.026c-21.525 0-38.974 17.449-38.974 38.974 0 12.283 5.688 23.232 14.567 30.376l-14.567 8.599H50c21.525 0 38.975-17.449 38.975-38.975C88.975 28.475 71.523 11.026 50 11.026zM49.999 85.507H23.961l8.242-4.786C21.617 74.574 14.493 63.123 14.493 50c0-19.61 15.896-35.506 35.506-35.506 19.61 0 35.507 15.896 35.507 35.506C85.506 69.609 69.609 85.507 49.999 85.507zM38.165 60.521c0.581 0.581 0.581 1.521 0 2.103-0.581 0.581-1.521 0.581-2.102 0L24.516 51.076c-0.581-0.581-0.581-1.521 0-2.102l11.547-11.547c0.581-0.581 1.522-0.581 2.102 0 0.581 0.58 0.581 1.521 0 2.102L27.669 50.025 38.165 60.521M61.835 39.529c-0.581-0.581-0.581-1.521 0-2.102s1.521-0.581 2.103 0l11.547 11.547c0.581 0.581 0.581 1.522 0 2.102L63.938 62.623c-0.581 0.581-1.522 0.581-2.103 0-0.581-0.58-0.581-1.521 0-2.102l10.496-10.496L61.835 39.529M44.498 63.563c-0.206 0-0.415-0.044-0.615-0.134-0.747-0.342-1.077-1.223-0.737-1.97l11.004-24.153c0.34-0.747 1.221-1.077 1.968-0.736 0.748 0.34 1.077 1.221 0.737 1.968L45.851 62.692C45.602 63.24 45.062 63.563 44.498 63.563" fill="#1e787b" data-fill-palette-color="accent"></path></svg></g></svg></g></svg></g></svg></g></svg></g><defs></defs></svg><rect width="320" height="360" fill="none" stroke="none" visibility="hidden"></rect></g></svg></g></svg>